<?xml version="1.0" encoding="UTF-8"?>
<svg id="Layer_1" data-name="Layer 1" xmlns="http://www.w3.org/2000/svg" viewBox="0 0 641.36 641.36">
  <defs>
    <style>
      .cls-1 {
        fill: #fff;
      }
    </style>
  </defs>
  <rect width="641.36" height="641.36" rx="101" ry="101"/>
  <path class="cls-1" d="M264.04,204.19c0-48.65-39.68-85.77-83.86-85.77-48.65,0-85.77,36.49-85.77,82.57,0,40.33,24.33,65.29,91.53,82.57,102.41,26.24,136.98,79.38,136.98,143.38,0,77.45-63.37,138.9-142.74,138.9-83.86,0-144.66-56.33-145.94-140.82h47.37c3.2,60.81,41.61,97.93,98.57,97.93,53.77,0,95.37-42.25,95.37-94.09s-33.93-80.01-96.02-97.93c-67.85-19.2-132.5-41.61-132.5-128.02,0-74.89,60.18-127.38,133.15-127.38s131.22,55.69,131.22,128.66h-47.37Z"/>
  <path class="cls-1" d="M451.58,557.52V126.73h-108.82v-42.89h264.36v42.89h-108.17v430.78h-47.37Z"/>
</svg>